<svg viewBox="0 0 24 24" aria-hidden="true" xmlns="http://www.w3.org/2000/svg">
  <path fill="currentColor" d="M20.94 14c-.32 1.67-2.84 3.5-5.57 3.83-.43.05-.86.09-1.31.1-2.44.08-4.3-.6-4.3-.6v.92c.03 1.86 1.32 1.92 4.34 1.82 3.05-.1 3.85-.2 3.85-.2l.08 1.68s-1.43.77-3.98.91c-1.41.08-3.16.03-5.2-.5-4.43-1.16-5.19-5.82-5.31-10.55L3.52 7.3c0-4.77 3.13-6.17 3.13-6.17C8.23.39 10.95.08 12 .04h.06c1.05.04 3.77.35 5.35 1.09 0 0 3.13 1.4 3.13 6.17 0 0 .03 3.53-.6 6.7Zm-3.24-6.9c0-1.18-.3-2.11-.92-2.79-.64-.68-1.48-1.03-2.54-1.03-1.23 0-2.16.47-2.78 1.41l-.6 1-.6-1c-.62-.94-1.55-1.41-2.78-1.41-1.06 0-1.9.35-2.54 1.03-.62.68-.92 1.61-.92 2.79v5.74h2.28V7.28c0-1.18.5-1.78 1.49-1.78 1.1 0 1.66.71 1.66 2.12v3.14h2.24V7.62c0-1.41.55-2.12 1.66-2.12.99 0 1.49.6 1.49 1.78v5.56h2.28V7.1Z"/>
</svg>
